<?xml version="1.0" encoding="UTF-8" standalone="no"?> <svg width="64" height="64" viewBox="0 0 64 64" fill="none" xmlns="http://www.w3.org/2000/svg">
<path d="M54.2899 28.22C55.4865 28.2092 56.6474 27.8106 57.5982 27.084C58.549 26.3574 59.2384 25.3419 59.563 24.1901C59.8876 23.0383 59.8298 21.8123 59.3983 20.6961C58.9668 19.58 58.1849 18.6339 57.1699 18C58.8199 8.29995 49.2699 8.93995 40.6099 12.54C35.6199 -0.120049 25.9999 -0.120049 20.9999 12.53C19.464 11.8837 17.8873 11.3392 16.2799 10.9C15.1699 3.59995 4.55994 4.99995 5.34994 12.33C1.71994 17.58 7.34994 25.75 13.2199 32.43C-0.110064 46.6 0.619936 60.49 20.9999 52.33C25.9999 65 35.6199 65 40.6099 52.33C61.0499 60.49 61.7099 46.6 48.3999 32.43C49.7414 30.9523 51.0064 29.4069 52.1899 27.8C52.8554 28.077 53.5691 28.2197 54.2899 28.22V28.22ZM41.6599 25.84C41.1399 25.39 40.6599 24.93 40.0699 24.48C37.6928 22.4941 35.2127 20.6349 32.6399 18.91C34.8343 17.5452 37.1084 16.313 39.4499 15.22C40.5615 18.6715 41.3024 22.2315 41.6599 25.84ZM41.8899 28.74C41.9999 30 41.9999 31.18 41.9999 32.44C41.9999 33.7 41.9999 34.9199 41.8899 36.1399C38.4297 39.3101 34.7249 42.2024 30.8099 44.79C26.8925 42.202 23.1875 39.3062 19.7299 36.13C19.5849 33.6688 19.5849 31.2012 19.7299 28.74C23.1842 25.567 26.8859 22.6745 30.7999 20.09C34.7253 22.6674 38.4343 25.5603 41.8899 28.74V28.74ZM30.8099 4.99995C33.8799 4.99995 36.7199 8.22995 38.8099 13.35C36.0666 14.6263 33.4108 16.0828 30.8599 17.71C28.3075 16.0824 25.6519 14.6227 22.9099 13.34C24.9099 8.22995 27.7399 4.99995 30.8099 4.99995ZM22.1699 15.22C24.5185 16.3157 26.7992 17.5513 28.9999 18.92C25.8579 21.0358 22.852 23.347 19.9999 25.84C20.3445 22.233 21.0719 18.6729 22.1699 15.22V15.22ZM6.16994 16.22C6.14201 15.729 6.18922 15.2367 6.30994 14.76C6.92723 15.5996 7.76884 16.2481 8.73809 16.631C9.70734 17.0139 10.7649 17.1156 11.7894 16.9245C12.8139 16.7334 13.7637 16.2572 14.5297 15.5506C15.2957 14.844 15.8469 13.9357 16.1199 12.93C17.5377 13.3411 18.9301 13.8353 20.2899 14.41C18.8652 18.7474 18.0114 23.252 17.7499 27.81C16.6166 28.8566 15.5533 29.9066 14.5599 30.96C9.52994 25.34 6.36994 19.94 6.19994 16.22H6.16994ZM17.6399 30.71C17.6399 31.85 17.6399 33.02 17.6399 34.15C17.0599 33.58 16.4999 33 15.9999 32.43C16.4999 31.86 17.0599 31.28 17.6399 30.71ZM7.32994 51.77C3.70994 48.06 9.37994 39.77 14.5799 33.9C15.5799 34.95 16.6499 36.01 17.7799 37.06C18.0425 41.6243 18.8963 46.1353 20.3199 50.4799C14.1699 52.9999 9.37994 53.48 7.32994 51.77ZM19.9999 39C22.8508 41.5189 25.8567 43.8568 28.9999 46C26.8077 47.3655 24.5372 48.601 22.1999 49.7C21.0819 46.2233 20.3443 42.6357 19.9999 39V39ZM30.8099 59.8699C27.7399 59.8699 24.8999 56.64 22.8599 51.52C25.6203 50.2456 28.2929 48.7891 30.8599 47.16C33.427 48.7891 36.0995 50.2456 38.8599 51.52C36.7199 56.64 33.8799 59.8699 30.8099 59.8699ZM39.4399 49.66C37.1027 48.561 34.8321 47.3255 32.6399 45.9599C35.7853 43.8451 38.7915 41.5303 41.6399 39.0299C41.2916 42.6422 40.554 46.2062 39.4399 49.66V49.66ZM55.4399 48.9599C55.2799 54.4699 48.1199 53.2399 41.3099 50.4799C42.7345 46.1356 43.5883 41.6244 43.8499 37.06C44.9999 36 45.9999 35 46.9999 33.9C52.2599 39.7 55.4299 45.23 55.4299 49L55.4399 48.9599ZM43.9999 30.71C44.5799 31.29 45.1499 31.86 45.6999 32.44C45.1499 33.01 44.5799 33.59 43.9999 34.16C43.9999 33 43.9999 31.85 43.9999 30.71ZM46.9999 31C45.9999 29.95 44.9299 28.9 43.7999 27.85C43.5549 23.277 42.7144 18.7555 41.2999 14.4C48.6699 11.4 56.4399 10.22 55.2999 17.28C49.9499 16.23 46.5399 23.07 50.5199 26.71C49.4699 28.12 48.3199 29.54 46.9999 31Z" fill="black"/>
</svg>
